HIERARCHY
ROOT Hips
{
	OFFSET	0.00	0.00	0.00
	CHANNELS 6 Xposition Yposition Zposition Zrotation Xrotation Yrotation
	JOINT LeftUpLeg
	{
		OFFSET	 0.126116	-0.065224	 0.014019
		CHANNELS 3 Zrotation Xrotation Yrotation
		JOINT LeftLeg
		{
			OFFSET	 0.000000	 0.569914	 0.000000
			CHANNELS 3 Zrotation Xrotation Yrotation
			JOINT LeftFoot
			{
				OFFSET	 0.000000	 0.544423	 0.000000
				CHANNELS 3 Zrotation Xrotation Yrotation
				JOINT LeftToeBase
				{
					OFFSET	 0.000000	 0.207117	 0.000000
					CHANNELS 3 Zrotation Xrotation Yrotation
					End Site
					{
						OFFSET	 0.000000	 0.207117	 0.000000
					}
				}
			}
		}
	}
	JOINT RightUpLeg
	{
		OFFSET	-0.124023	-0.065224	 0.008373
		CHANNELS 3 Zrotation Xrotation Yrotation
		JOINT RightLeg
		{
			OFFSET	 0.000000	 0.570047	 0.000000
			CHANNELS 3 Zrotation Xrotation Yrotation
			JOINT RightFoot
			{
				OFFSET	 0.000000	 0.544354	 0.000000
				CHANNELS 3 Zrotation Xrotation Yrotation
				JOINT RightToeBase
				{
					OFFSET	 0.000000	 0.207540	 0.000000
					CHANNELS 3 Zrotation Xrotation Yrotation
					End Site
					{
						OFFSET	 0.000000	 0.207540	 0.000000
					}
				}
			}
		}
	}
	JOINT Spine
	{
		OFFSET	 0.000184	 0.117403	 0.007763
		CHANNELS 3 Zrotation Xrotation Yrotation
		JOINT Spine1
		{
			OFFSET	 0.000000	 0.137269	 0.000000
			CHANNELS 3 Zrotation Xrotation Yrotation
			JOINT Spine2
			{
				OFFSET	 0.000000	 0.156879	 0.000000
				CHANNELS 3 Zrotation Xrotation Yrotation
				JOINT LeftShoulder
				{
					OFFSET	 0.080501	 0.160143	 0.002496
					CHANNELS 3 Zrotation Xrotation Yrotation
					JOINT LeftArm
					{
						OFFSET	 0.000000	 0.164363	 0.000000
						CHANNELS 3 Zrotation Xrotation Yrotation
						JOINT LeftForeArm
						{
							OFFSET	 0.000000	 0.364576	 0.000000
							CHANNELS 3 Zrotation Xrotation Yrotation
							JOINT LeftHand
							{
								OFFSET	 0.000000	 0.360812	 0.000000
								CHANNELS 3 Zrotation Xrotation Yrotation
								JOINT LeftHandIndex1
								{
									OFFSET	 0.000000	 0.086006	 0.000000
									CHANNELS 3 Zrotation Xrotation Yrotation
									JOINT LeftHandIndex2
									{
										OFFSET	 0.000000	 0.047237	 0.000000
										CHANNELS 3 Zrotation Xrotation Yrotation
										JOINT LeftHandIndex3
										{
											OFFSET	-0.004284	 0.038165	 0.000551
											CHANNELS 3 Zrotation Xrotation Yrotation
											End Site
											{
												OFFSET	-0.004284	 0.038165	 0.000551
											}
										}
									}
								}
							}
						}
					}
				}
				JOINT Neck
				{
					OFFSET	 0.000000	 0.176489	 0.000000
					CHANNELS 3 Zrotation Xrotation Yrotation
					JOINT Head
					{
						OFFSET	 0.000000	 0.077941	 0.001747
						CHANNELS 3 Zrotation Xrotation Yrotation
						End Site
						{
							OFFSET	 0.000000	 0.077941	 0.001747
						}
					}
				}
				JOINT RightShoulder
				{
					OFFSET	-0.080363	 0.159706	-0.000306
					CHANNELS 3 Zrotation Xrotation Yrotation
					JOINT RightArm
					{
						OFFSET	 0.000000	 0.164196	 0.000000
						CHANNELS 3 Zrotation Xrotation Yrotation
						JOINT RightForeArm
						{
							OFFSET	 0.000000	 0.365611	 0.000000
							CHANNELS 3 Zrotation Xrotation Yrotation
							JOINT RightHand
							{
								OFFSET	 0.000000	 0.360648	 0.000000
								CHANNELS 3 Zrotation Xrotation Yrotation
								JOINT RightHandIndex1
								{
									OFFSET	 0.000000	 0.069977	 0.000000
									CHANNELS 3 Zrotation Xrotation Yrotation
									JOINT RightHandIndex2
									{
										OFFSET	 0.000000	 0.052305	 0.000000
										CHANNELS 3 Zrotation Xrotation Yrotation
										JOINT RightHandIndex3
										{
											OFFSET	 0.009002	 0.042196	 0.000782
											CHANNELS 3 Zrotation Xrotation Yrotation
											End Site
											{
												OFFSET	 0.009002	 0.042196	 0.000782
											}
										}
									}
								}
							}
						}
					}
				}
			}
		}
	}
}
MOTION
Frames:    8
Frame Time: 0.03333334
 0.456983	 1.081813	 0.616998	-7.691885	-30.974020	-179.493300	 130.548500	 66.598360	 44.531120	 24.800620	-57.652620	 29.887090	-2.995631	 77.050240	-10.180810	 1.292262	 28.425850	-2.713146	-158.896300	 76.685390	-34.115820	-22.938990	-63.749630	-31.319460	-27.559390	 79.325540	 40.553320	-1.288183	 28.361890	 2.710176	-0.051023	 13.143600	-1.237288	-0.347006	 14.684370	-1.804767	-1.390702	 1.330212	-1.688566	-121.920800	 28.821970	 105.142500	 34.061840	 4.594254	 11.504600	 43.547310	-3.208807	-39.436790	 24.792610	-26.193660	 22.501580	-6.580301	 5.266122	 0.000000	 0.000000	 0.000000	 0.000000	 0.000000	 0.000000	 0.000000	 3.616669	 20.903760	-1.740493	-2.285261	-32.380520	-0.501692	 124.561600	 27.665260	-105.781300	-36.918500	 1.192475	 5.814828	-44.474350	 0.957635	-4.058782	-24.303160	-31.217590	-19.507880	 15.208500	 5.323790	 0.000000	 0.000000	 0.000000	 0.000000	 0.000000	 0.000000	 0.000000
 0.449784	 1.128740	 0.611256	-6.264800	-28.115570	-178.439200	 143.008100	 60.345510	 34.612880	 18.654790	-50.289280	 24.417280	 0.195393	 74.009120	-12.357190	 1.292262	 28.425850	-2.713146	-169.633700	 68.809680	-23.384970	-16.759730	-56.314340	-26.332080	-26.773380	 76.167110	 39.503720	-1.288183	 28.361890	 2.710176	 0.234636	 11.566960	-1.230183	 0.075510	 13.979850	-1.650205	-0.876846	-0.982160	-1.699481	-118.304400	 25.568910	 102.360200	 32.997960	 13.662210	 9.914972	 47.279090	-3.421190	-37.654310	 29.989350	-31.485830	 23.195810	-6.580301	 5.266122	 0.000000	 0.000000	 0.000000	 0.000000	 0.000000	 0.000000	 0.000000	 0.986708	 9.829096	-1.112237	-0.696553	-22.365800	-0.623726	 122.706100	 25.186660	-103.861400	-34.881660	 6.291933	 2.502174	-49.480740	 1.039102	-3.668709	-29.842950	-38.045470	-22.564880	 15.208500	 5.323790	 0.000000	 0.000000	 0.000000	 0.000000	 0.000000	 0.000000	 0.000000
 0.447145	 1.156880	 0.602938	-4.720089	-25.604080	-177.309300	 149.383900	 55.401100	 30.804660	 15.988310	-46.035760	 22.558730	 3.759279	 72.570020	-15.163750	 1.292262	 28.425850	-2.713146	-172.081000	 62.807180	-20.310430	-14.133280	-51.791650	-24.116100	-26.272200	 74.261990	 38.348230	-1.288183	 28.361890	 2.710176	 0.576330	 10.141650	-1.284058	 0.628019	 15.515030	-1.459214	-0.404351	-4.605151	-1.692832	-113.238200	 21.748690	 99.292340	 34.540050	 22.222480	 7.481371	 49.425050	-3.536868	-35.512340	 36.229910	-36.616690	 24.965870	-6.580301	 5.266122	 0.000000	 0.000000	 0.000000	 0.000000	 0.000000	 0.000000	 0.000000	-0.084723	-1.290459	-0.973084	-0.263513	-12.500030	-0.706088	 119.010600	 22.526900	-101.454700	-35.423370	 12.036680	 1.565338	-53.163800	 1.093878	-4.881734	-36.349420	-44.867570	-26.766270	 15.208500	 5.323790	 0.000000	 0.000000	 0.000000	 0.000000	 0.000000	 0.000000	 0.000000
 0.446064	 1.182247	 0.590277	-3.013875	-22.487260	-176.059900	 154.893600	 49.566940	 28.411750	 13.775660	-41.871160	 21.071850	 7.683525	 71.269070	-17.987850	 1.292262	 28.425850	-2.713146	-174.068300	 56.087770	-17.504310	-11.934010	-47.092480	-20.053770	-20.338130	 73.137470	 30.724640	-1.288183	 28.361890	 2.710176	 0.798311	 8.575506	-1.146782	 1.315357	 16.163160	-1.263045	 0.003079	-7.864740	-1.626201	-115.878800	 19.311900	 98.822880	 32.379780	 24.687770	 12.159850	 51.882520	-3.663167	-32.299120	 43.008720	-43.818790	 28.464170	-6.580301	 5.266122	 0.000000	 0.000000	 0.000000	 0.000000	 0.000000	 0.000000	 0.000000	-1.685529	-2.611254	-1.036651	 0.495109	-10.969870	-0.965765	 119.634900	 19.547030	-100.180800	-32.881100	 16.117970	-0.826862	-56.635750	 1.141522	-6.752771	-43.496720	-51.654950	-32.159010	 15.208500	 5.323790	 0.000000	 0.000000	 0.000000	 0.000000	 0.000000	 0.000000	 0.000000
 0.443720	 1.213850	 0.571458	-1.508207	-19.320180	-174.920300	 160.560100	 42.435270	 26.031360	 10.879910	-35.393910	 18.922380	 9.763179	 68.928040	-18.477360	 1.292262	 28.425850	-2.713146	-175.719600	 47.880960	-15.221950	-9.263820	-39.947440	-15.529300	-14.304150	 70.936240	 22.789960	-1.288183	 28.361890	 2.710176	 0.848975	 6.480323	-1.103703	 1.279747	 12.977850	-0.983822	 0.579165	-8.960773	-1.623722	-117.791700	 16.891570	 98.103320	 29.226610	 26.166210	 17.860840	 55.246190	-3.825065	-29.127020	 44.562390	-50.732790	 30.479450	-6.580301	 5.266122	 0.000000	 0.000000	 0.000000	 0.000000	 0.000000	 0.000000	 0.000000	-1.890608	-2.405695	-1.146874	 0.409789	-10.318710	-1.005810	 122.477100	 16.675380	-99.450210	-29.937450	 18.466280	-4.541879	-59.783460	 1.181079	-8.529314	-47.016570	-56.724880	-34.963810	 15.208500	 5.323790	 0.000000	 0.000000	 0.000000	 0.000000	 0.000000	 0.000000	 0.000000
 0.443184	 1.240353	 0.551242	-0.731074	-15.555980	-174.299700	 165.073900	 34.562780	 24.280830	 8.487135	-29.054470	 16.627660	 10.201750	 66.630940	-16.858390	 1.292262	 28.425850	-2.713146	-176.702400	 39.466940	-13.979360	-7.137927	-32.881960	-11.384650	-9.261544	 68.461450	 15.270750	-1.288183	 28.361890	 2.710176	 0.784049	 4.878915	-0.999373	 1.111621	 9.663938	-0.892689	 0.802162	-8.935146	-1.638073	-118.974000	 14.487630	 97.181900	 27.206420	 26.979170	 22.267890	 58.107150	-3.952343	-26.023550	 45.381690	-56.739510	 31.974200	-6.580301	 5.266122	 0.000000	 0.000000	 0.000000	 0.000000	 0.000000	 0.000000	 0.000000	-1.561469	-0.992945	-1.308375	 0.154431	-10.192360	-0.973425	 124.041400	 14.177480	-98.470710	-27.775150	 20.715640	-7.073254	-62.490230	 1.155404	-10.133810	-49.077900	-61.136010	-36.473730	 15.208500	 5.323790	 0.000000	 0.000000	 0.000000	 0.000000	 0.000000	 0.000000	 0.000000
 0.444598	 1.257777	 0.531839	-0.456716	-11.999800	-174.163500	 168.053700	 27.703160	 23.079110	 6.967600	-24.542940	 14.201900	 9.083388	 65.259570	-13.489270	 1.292262	 28.425850	-2.713146	-177.045300	 32.225330	-13.637190	-5.796731	-27.720670	-7.640874	-4.941890	 66.722740	 8.300981	-1.288183	 28.361890	 2.710176	 0.639416	 3.827615	-0.799352	 1.055676	 8.100219	-0.809963	 0.616955	-8.876872	-1.710464	-119.493900	 12.191370	 96.163710	 26.738350	 27.315550	 24.770530	 60.136140	-4.036606	-23.089580	 45.764920	-61.212270	 32.669900	-6.580301	 5.266122	 0.000000	 0.000000	 0.000000	 0.000000	 0.000000	 0.000000	 0.000000	-0.816609	 1.269611	-1.542807	-0.159905	-10.362460	-0.890728	 124.567900	 11.960760	-97.392560	-26.874530	 22.730560	-8.238779	-64.588320	 1.234517	-11.631830	-50.530600	-64.930150	-37.626000	 15.208500	 5.323790	 0.000000	 0.000000	 0.000000	 0.000000	 0.000000	 0.000000	 0.000000
 0.446763	 1.274975	 0.503000	 0.072979	-10.110890	-174.337800	 171.035100	 21.991330	 21.755690	 5.477873	-19.765320	 11.036970	 6.308376	 64.482350	-8.359931	 1.292262	 28.425850	-2.713146	-177.359100	 25.512210	-13.350280	-4.422126	-21.858200	-3.467825	 0.191976	 64.877330	 0.521105	-1.288183	 28.361890	 2.710176	 0.361211	 2.842622	-0.527396	 0.713757	 5.797313	-0.706466	 0.307200	-8.416357	-1.773721	-119.743800	 9.189174	 94.752230	 26.930040	 27.611070	 27.841730	 62.860640	-4.141891	-19.246480	 46.755780	-65.544180	 33.165570	-6.580301	 5.266122	 0.000000	 0.000000	 0.000000	 0.000000	 0.000000	 0.000000	 0.000000	 0.050759	 4.453482	-1.857750	-0.068763	-9.585857	-0.826597	 124.599500	 9.233058	-95.945960	-26.673410	 25.674050	-9.159316	-66.890500	 1.257088	-13.666140	-49.075470	-68.886990	-36.678880	 15.208500	 5.323790	 0.000000	 0.000000	 0.000000	 0.000000	 0.000000	 0.000000	 0.000000
